# xmcd CD database file
#
# Track frame offsets:
#	150
#	17354
#	35888
#	50931
#	66858
#	82960
#	98995
#	110975
#	126593
#	141144
#	155862
#	169718
#	184864
#
# Disc length: 2649 seconds
#
# Revision: 1
# Processed by: cddbd v1.5PL3 Copyright (c) Steve Scherf et al.
# Submitted via: CDex 1.51
#
DISCID=c30a570d
DTITLE=Chico Balla - No colo da noite
DYEAR=2004
DGENRE=Forró
TTITLE0=Me chama
TTITLE1=Nem vem que não tem
TTITLE2=Sol dos amantes
TTITLE3=Meninos
TTITLE4=Estiagem
TTITLE5=Foi bom te amar
TTITLE6=Desafio
TTITLE7=No colo da noite
TTITLE8=Chuveu
TTITLE9=Razão do meu viver
TTITLE10=Anjo do céu
TTITLE11=Com gosto de gás
TTITLE12=Desejo
EXTD=YEAR: 2004
EXTT0=
EXTT1=
EXTT2=
EXTT3=
EXTT4=
EXTT5=
EXTT6=
EXTT7=
EXTT8=
EXTT9=
EXTT10=
EXTT11=
EXTT12=
PLAYORDER=
